HIERARCHY
ROOT Joint1
{
	OFFSET 0.000000 0.000000 0.000000
	CHANNELS 6 Xposition Yposition Zposition Xrotation Yrotation Zrotation
	JOINT Joint2
	{
		OFFSET -0.000000 0.000000 1.456275
		CHANNELS 6 Xposition Yposition Zposition Xrotation Yrotation Zrotation
		JOINT Joint3
		{
			OFFSET -0.000000 0.000002 1.471446
			CHANNELS 6 Xposition Yposition Zposition Xrotation Yrotation Zrotation
			JOINT Joint4
			{
				OFFSET 0.625745 0.000000 0.917755
				CHANNELS 6 Xposition Yposition Zposition Xrotation Yrotation Zrotation
				JOINT Joint5
				{
					OFFSET -0.629534 0.000001 0.940221
					CHANNELS 6 Xposition Yposition Zposition Xrotation Yrotation Zrotation
					JOINT Joint6
					{
						OFFSET -0.000001 0.113772 1.960660
						CHANNELS 6 Xposition Yposition Zposition Xrotation Yrotation Zrotation
						JOINT Joint7
						{
							OFFSET -0.669733 -0.113771 0.388340
							CHANNELS 6 Xposition Yposition Zposition Xrotation Yrotation Zrotation
							End Site
							{
								OFFSET 0.005509 0.005509 0.438980
							}
						}
					}
				}
			}
		}
	}
}
MOTION
Frames: 22
Frame Time: 0.041667
0.000000 0.000000 0.000000 -0.000000 1.019410 62.771412 -0.000000 0.000000 1.456275 -0.000000 13.144426 -0.000002 -0.000000 0.000002 1.471446 -0.000004 -1.133455 75.319631 0.625745 0.000000 0.917755 -0.000012 86.087964 0.000008 -0.629534 0.000001 0.940221 -0.000002 1.709736 73.430503 -0.000001 0.113771 1.960660 -88.303889 72.712923 -0.000002 -0.669733 -0.113771 0.388340 -0.464417 3.537212 121.279298 
0.000000 0.000000 0.000000 -0.000000 1.019410 64.467970 -0.000000 0.000000 1.456275 -0.000001 14.715547 -0.000002 -0.000000 0.000002 1.471445 -0.000004 -1.133454 77.356209 0.625745 0.000000 0.917755 -0.000007 84.765503 0.000014 -0.629534 0.000001 0.940221 -0.000001 1.709736 75.415513 -0.000001 0.113771 1.960660 -88.303896 72.246305 0.000002 -0.669733 -0.113771 0.388340 -0.458036 3.535638 120.909347 
0.000000 0.000000 0.000000 -0.000000 1.019410 66.164521 -0.000000 0.000000 1.456275 -0.000000 16.286661 -0.000000 -0.000000 0.000002 1.471446 -0.000005 -1.133455 79.392787 0.625745 0.000000 0.917755 0.000000 83.443041 0.000011 -0.629534 0.000001 0.940221 -0.000004 1.709737 77.400516 -0.000001 0.113773 1.960661 -88.303903 71.779694 -0.000019 -0.669733 -0.113771 0.388340 -0.451674 3.534019 120.539438 
0.000000 0.000000 0.000000 -0.000000 1.019410 67.861092 -0.000000 -0.000000 1.456275 0.000000 17.857798 0.000001 -0.000000 0.000002 1.471446 -0.000005 -1.133455 81.429392 0.625745 0.000000 0.917755 -0.000022 82.120567 0.000019 -0.629534 0.000001 0.940221 -0.000000 1.709736 79.385547 -0.000001 0.113772 1.960660 -88.303903 71.313069 -0.000002 -0.669733 -0.113771 0.388340 -0.445316 3.532360 120.169501 
0.000000 0.000000 0.000000 -0.000000 1.019410 69.557697 -0.000000 0.000000 1.456275 0.000000 19.428958 -0.000002 -0.000001 0.000002 1.471446 -0.000005 -1.133457 83.466025 0.625745 0.000001 0.917755 -0.000019 80.798071 -0.000005 -0.629533 0.000001 0.940221 -0.000001 1.709738 81.370598 -0.000001 0.113772 1.960660 -88.303903 70.846438 -0.000000 -0.669732 -0.113771 0.388340 -0.438973 3.530665 119.799565 
0.000000 0.000000 0.000000 -0.000000 1.019410 71.254214 -0.000000 0.000000 1.456275 -0.000000 21.000048 0.000000 -0.000001 0.000002 1.471446 -0.000004 -1.133454 85.502576 0.625745 0.000001 0.917755 -0.000026 79.475630 0.000012 -0.629534 0.000001 0.940221 -0.000000 1.709738 83.355574 -0.000001 0.113772 1.960661 -88.303896 70.379826 -0.000004 -0.669733 -0.113771 0.388340 -0.432632 3.528918 119.429655 
0.000000 0.000000 0.000000 -0.000000 1.019410 72.950628 -0.000000 0.000000 1.456275 0.000001 22.571041 0.000000 -0.000000 0.000002 1.471446 -0.000005 -1.133457 87.538997 0.625745 0.000000 0.917755 -0.000009 78.153272 -0.000003 -0.629534 0.000001 0.940222 -0.000001 1.709736 85.340420 -0.000001 0.113772 1.960661 -88.303889 69.913243 -0.000002 -0.669732 -0.113770 0.388340 -0.426310 3.527142 119.059746 
0.000000 0.000000 0.000000 -0.000000 1.019410 74.647329 -0.000000 -0.000000 1.456275 0.000001 24.142297 -0.000001 -0.000000 0.000002 1.471446 -0.000005 -1.133456 89.575759 0.625744 0.000000 0.917755 -0.000010 76.830694 0.000001 -0.629533 0.000001 0.940221 0.000001 1.709737 87.325608 -0.000001 0.113772 1.960660 -88.303896 69.446590 -0.000006 -0.669733 -0.113771 0.388340 -0.419996 3.525313 118.689782 
0.000000 0.000000 0.000000 -0.000000 1.019410 76.344419 -0.000000 -0.000000 1.456275 -0.000000 25.713909 0.000001 -0.000000 0.000002 1.471445 -0.000005 -1.133453 91.612986 0.625745 0.000001 0.917755 0.000001 75.507816 0.000001 -0.629534 0.000001 0.940221 0.000000 1.709737 89.311246 -0.000001 0.113772 1.960661 -88.303903 68.979829 -0.000005 -0.669733 -0.113771 0.388340 -0.413697 3.523458 118.319749 
0.000000 0.000000 0.000000 -0.000000 1.019410 78.040451 -0.000000 0.000000 1.456275 0.000000 27.284546 0.000000 -0.000000 0.000002 1.471445 -0.000006 -1.133454 93.648935 0.625745 0.000001 0.917755 -0.000012 74.185765 0.000003 -0.629534 0.000001 0.940221 0.000000 1.709736 91.295642 -0.000001 0.113773 1.960660 -88.303889 68.513354 -0.000002 -0.669733 -0.113771 0.388340 -0.407410 3.521556 117.949936 
0.000000 0.000000 0.000000 -0.000000 1.019410 79.735034 -0.000000 0.000000 1.456275 -0.000000 28.853837 0.000001 -0.000000 0.000002 1.471445 -0.000006 -1.133454 95.683150 0.625745 0.000001 0.917755 -0.000002 72.864841 0.000004 -0.629534 0.000001 0.940221 -0.000002 1.709735 93.278357 -0.000001 0.113772 1.960661 -88.303896 68.047276 -0.000005 -0.669733 -0.113771 0.388340 -0.401142 3.519618 117.580450 
0.000000 0.000000 0.000000 -0.000000 1.019410 81.433572 -0.000000 0.000000 1.456275 0.000000 30.426795 0.000001 -0.000000 0.000002 1.471445 -0.000006 -1.133455 97.722119 0.625745 0.000001 0.917755 -0.000003 71.540829 0.000003 -0.629533 0.000001 0.940221 -0.000001 1.709738 95.265675 -0.000001 0.113773 1.960661 -88.303889 67.580118 -0.000006 -0.669733 -0.113771 0.388341 -0.394871 3.517629 117.210103 
0.000000 0.000000 0.000000 -0.000000 1.019410 83.137500 -0.000000 0.000000 1.456275 0.000000 32.004747 0.000000 -0.000000 0.000002 1.471446 -0.000006 -1.133452 99.767569 0.625745 0.000000 0.917755 0.000002 70.212610 0.000002 -0.629533 0.000001 0.940221 -0.000002 1.709737 97.259326 -0.000001 0.113772 1.960661 -88.303889 67.111472 -0.000006 -0.669733 -0.113771 0.388341 -0.388597 3.515594 116.838582 
0.000000 0.000000 0.000000 -0.000000 1.019410 84.826694 -0.000000 0.000000 1.456275 -0.000000 33.569041 0.000000 -0.000000 0.000002 1.471446 -0.000007 -1.133454 101.795302 0.625745 0.000000 0.917755 -0.000006 68.895893 0.000004 -0.629533 0.000001 0.940221 -0.000001 1.709738 99.235709 -0.000001 0.113772 1.960660 -88.303889 66.646882 -0.000003 -0.669733 -0.113771 0.388340 -0.382384 3.513543 116.470271 
0.000000 0.000000 0.000000 -0.000000 1.019410 86.495733 -0.000000 -0.000000 1.456275 0.000000 35.114672 0.000000 -0.000001 0.000002 1.471446 -0.000007 -1.133458 103.798842 0.625745 0.000001 0.917755 -0.000002 67.594885 -0.000001 -0.629534 0.000001 0.940221 -0.000002 1.709738 101.188515 -0.000001 0.113772 1.960661 -88.303896 66.187839 -0.000005 -0.669733 -0.113771 0.388340 -0.376262 3.511470 116.106331 
0.000000 0.000000 0.000000 -0.000000 1.019410 88.219816 -0.000000 0.000000 1.456275 -0.000000 36.711293 -0.000000 -0.000000 0.000002 1.471446 -0.000007 -1.133455 105.868485 0.625745 0.000001 0.917755 0.000003 66.250950 -0.000001 -0.629534 0.000001 0.940221 0.000000 1.709738 103.205736 -0.000001 0.113772 1.960660 -88.303889 65.713646 -0.000002 -0.669733 -0.113771 0.388340 -0.369953 3.509293 115.730425 
0.000000 0.000000 0.000000 -0.000000 1.019410 90.019100 -0.000000 -0.000000 1.456275 -0.000000 38.377535 -0.000000 -0.000000 0.000002 1.471446 -0.000007 -1.133454 108.028382 0.625744 0.000000 0.917755 -0.000001 64.848411 0.000000 -0.629534 0.000001 0.940221 -0.000002 1.709737 105.310937 -0.000001 0.113772 1.960660 -88.303896 65.218772 -0.000009 -0.669733 -0.113771 0.388341 -0.363384 3.506972 115.338112 
0.000000 0.000000 0.000000 -0.000000 1.019410 91.612931 -0.000000 0.000000 1.456275 -0.000000 39.853536 -0.000000 -0.000000 0.000002 1.471446 -0.000007 -1.133455 109.941669 0.625745 0.000000 0.917755 0.000005 63.606014 0.000002 -0.629534 0.000001 0.940221 -0.000000 1.709735 107.175770 -0.000001 0.113772 1.960661 -88.303882 64.780403 -0.000005 -0.669733 -0.113771 0.388340 -0.357577 3.504883 114.990606 
0.000000 0.000000 0.000000 -0.000000 1.019410 92.771509 -0.000000 0.000000 1.456275 -0.000000 40.926459 0.000000 -0.000000 0.000002 1.471446 -0.000007 -1.133457 111.332459 0.625745 0.000000 0.917755 0.000004 62.702912 0.000000 -0.629534 0.000001 0.940221 0.000002 1.709738 108.531330 -0.000001 0.113772 1.960661 -88.303889 64.461754 -0.000008 -0.669733 -0.113771 0.388341 -0.353357 3.503341 114.737985 
0.000000 0.000000 0.000000 -0.000000 1.019410 93.769113 -0.000000 0.000000 1.456275 -0.000000 41.850304 0.000000 -0.000000 0.000002 1.471446 -0.000007 -1.133455 112.530003 0.625744 0.000000 0.917755 0.000001 61.925282 0.000002 -0.629533 0.000001 0.940221 0.000001 1.709738 109.698555 -0.000002 0.113772 1.960660 -88.303889 64.187372 -0.000001 -0.669733 -0.113771 0.388340 -0.349736 3.501999 114.520464 
0.000000 0.000000 0.000000 -0.000000 1.019410 95.006053 -0.000000 -0.000000 1.456275 0.000000 42.995788 0.000000 -0.000000 0.000002 1.471446 -0.000008 -1.133453 114.014852 0.625745 0.000000 0.917755 -0.000013 60.961091 0.000002 -0.629534 0.000001 0.940221 -0.000002 1.709734 111.145804 -0.000001 0.113772 1.960660 -88.303889 63.847167 -0.000009 -0.669733 -0.113771 0.388340 -0.345249 3.500316 114.250767 
0.000000 0.000000 0.000000 -0.000000 1.019410 96.707631 -0.000000 -0.000000 1.456275 -0.000000 44.571561 0.000000 -0.000000 0.000002 1.471446 -0.000007 -1.133454 116.057454 0.625744 0.000000 0.917755 -0.000005 59.634709 0.000002 -0.629534 0.000001 0.940221 0.000000 1.709739 113.136688 -0.000001 0.113772 1.960660 -88.303889 63.379169 0.000002 -0.669733 -0.113771 0.388340 -0.339100 3.497965 113.879765 
